<svg xmlns="http://www.w3.org/2000/svg" width="32.003" height="32" viewBox="0 0 32.003 32"><path d="M35.568,29.559A26.88,26.88,0,0,0,29.953,25.8c-1.683-.808-2.3-.791-3.491.067-.991.716-1.633,1.383-2.774,1.133s-3.391-1.949-5.573-4.124-3.882-4.432-4.124-5.573.425-1.783,1.133-2.774c.858-1.191.883-1.808.067-3.491a26.349,26.349,0,0,0-3.757-5.615c-1.225-1.225-1.5-.958-2.174-.716A12.373,12.373,0,0,0,7.268,5.766,6.006,6.006,0,0,0,4.877,8.29C4.4,9.315,3.852,11.223,6.651,16.2A44.162,44.162,0,0,0,14.416,26.56h0l.008.008.008.008h0a44.334,44.334,0,0,0,10.355,7.764c4.982,2.8,6.89,2.249,7.914,1.775a5.9,5.9,0,0,0,2.524-2.391,12.373,12.373,0,0,0,1.058-1.991C36.526,31.059,36.8,30.784,35.568,29.559Z" transform="translate(-4.49 -4.502)" fill="#fff"/></svg>