<svg xmlns="http://www.w3.org/2000/svg" width="173.159" height="56" viewBox="0 0 173.159 56">
  <g id="logo" transform="translate(-56 -18)">
    <text id="HMU" transform="translate(112 60)" fill="#fff" font-size="40" font-family="Poppins-SemiBold, Poppins" font-weight="600"><tspan x="0" y="0">HMU</tspan></text>
    <g id="Rectangle_31" data-name="Rectangle 31" transform="translate(101 42)" fill="#ec2c2c" stroke="#1e1e1e" stroke-width="2">
      <rect width="110" height="6" stroke="none"/>
      <rect x="1" y="1" width="108" height="4" fill="none"/>
    </g>
    <g id="bullet" transform="translate(229.159 42.952) rotate(90)">
      <path id="Path_4" data-name="Path 4" d="M8.527,0a4.375,4.375,0,0,1,1.4,1.745,4.424,4.424,0,0,1,.373,1.9c0,.167-.08.244-.244.244h-3.2a.215.215,0,0,1-.244-.244A4.3,4.3,0,0,1,8.379.011s0-.008,0-.011Z" transform="translate(-6.407)" fill="#ec2c2c"/>
      <path id="Path_5" data-name="Path 5" d="M3.9,147.245v.192c.2.028.2.179.2.34,0,.212,0,.424,0,.636,0,.183-.072.257-.253.257H.254c-.18,0-.251-.073-.252-.258,0-.228,0-.456,0-.684,0-.2.021-.226.2-.3v-.186c-.169-.034-.2-.156-.2-.311q0-2.975,0-5.95c0-.242.061-.3.306-.3H3.789c.244,0,.306.06.306.3v5.962C4.095,147.143,4.07,147.181,3.9,147.245Z" transform="translate(0 -136.381)" fill="#ec2c2c"/>
    </g>
    <path id="handgun" d="M0,25.78a7.347,7.347,0,0,0,.227-.791A37.618,37.618,0,0,1,2.311,17.4a15.8,15.8,0,0,1,2.141-3.71,5.41,5.41,0,0,0,.978-2.127A5.063,5.063,0,0,0,4.762,7.7a11.426,11.426,0,0,1-1.606-3.5,4.114,4.114,0,0,1-.087-1.336A2.2,2.2,0,0,1,5.343,1C5.871.972,6.4,1,6.929,1H32.642c1.7,0,3.406,0,5.113-.017h.451V0h1.152a2.2,2.2,0,0,0,0,.421c.224,1.045.02,2.124.194,3.152a22.705,22.705,0,0,1,.11,2.688,10.418,10.418,0,0,1-.1,1.352s-.033.04-.05.037c-.484-.08-.668.16-.751.611s-.214.821-.334,1.249H23a10.757,10.757,0,0,1,.528,1.089,3.068,3.068,0,0,1-.691,3.2,5.343,5.343,0,0,1-3.046,1.857,7.013,7.013,0,0,1-1.272.063H15.849a3.77,3.77,0,0,1-.741-.187l-.033-.164c-.274.284-.571.544-.818.848a20.8,20.8,0,0,0-3.613,6.118,4.541,4.541,0,0,0-.254,1.246c-.047.828.417,1.239,1.252,1.172a2.354,2.354,0,0,0,.334-.043v2.234H0ZM16.787,9.537c.127,1.072.244,2.1,1.316,2.672a.571.571,0,0,1,.287.785.594.594,0,0,1-.828.25,2.414,2.414,0,0,1-1.175-1c-.177-.3-.334-.608-.538-1l-.4,2.672a2.759,2.759,0,0,0,.464.083h3.52a1.97,1.97,0,0,0,1.336-.594,2.184,2.184,0,0,0,.668-2.257,1.949,1.949,0,0,0-1.59-1.57,23.71,23.71,0,0,0-3.056-.037Zm3.339-1.9H35.261V6.792H34.77c-3.7,0-7.4.037-11.1-.023a10.287,10.287,0,0,0-3.55.872Z" transform="translate(56 40.959)" fill="#ec2c2c"/>
  </g>
</svg>
