<svg xmlns="http://www.w3.org/2000/svg" width="42.667" height="32" viewBox="0 0 42.667 32"><path d="M44.118,12.284H41.134V7.807l-6.159-.094.032,4.571H16.5l.126-4.571-6.031.094v4.571l-3.048-.094A3.049,3.049,0,0,0,4.5,15.331V36.665a3.049,3.049,0,0,0,3.048,3.048H44.118a3.049,3.049,0,0,0,3.048-3.048V15.331A3.049,3.049,0,0,0,44.118,12.284ZM36.5,9.236h3.048v6.1H36.5Zm-19.81,10.38c1.841,0,3.334,1.961,3.334,4.381s-1.493,4.381-3.334,4.381S13.355,26.417,13.355,24s1.493-4.381,3.334-4.381ZM12.118,9.236h3.048v6.1H12.118Zm-2.031,24.3s.361-2.9,1.182-3.445a11.687,11.687,0,0,1,3.185-.911s1.533,1.638,2.185,1.638,2.184-1.638,2.184-1.638a11.651,11.651,0,0,1,3.186.911c.965.643,1.205,3.445,1.205,3.445H10.087ZM41.07,32.093H27.356V30.569H41.07Zm0-3.048H27.356V27.522H41.07Zm0-3.048H27.356V24.474H41.07Zm0-3.048H27.356V21.426H41.07Z" transform="translate(-4.499 -7.712)" fill="#fff"/></svg>