<svg xmlns="http://www.w3.org/2000/svg" width="30.239" height="34.559" viewBox="0 0 30.239 34.559"><path d="M20.578,14.792c0,2.426-2.008,2.426-3.09,2.426H16.139V12.632h1.7c.948,0,2.744,0,2.744,2.16ZM30.943,12.37a15.286,15.286,0,0,1,2.177-6.81L28.282.72a8.707,8.707,0,0,1-5.241,2.174A9.02,9.02,0,0,1,17.91,1.861a9.654,9.654,0,0,1-5.142,1.032A9.318,9.318,0,0,1,7.78.92L2.928,5.759A15.005,15.005,0,0,1,4.917,12.37,11.936,11.936,0,0,1,4,16.775c-.355,1.045-.624,1.953-.806,2.71a13.586,13.586,0,0,0-.31,1.822,8.91,8.91,0,0,0,1.694,5.436,19.848,19.848,0,0,0,4.46,3.9,28.888,28.888,0,0,0,5.239,2.218l1.017.472c.32.154.662.3,1.02.466a4.292,4.292,0,0,1,1.6,1.481A4.658,4.658,0,0,1,19.549,33.8q.663-.284,1.313-.6c.353-.155.616-.271.768-.343q.5-.242,1.02-.443c.42-.165.937-.367,1.556-.59a12.951,12.951,0,0,0,2.618-1.185,22.711,22.711,0,0,0,4.4-3.844,8.785,8.785,0,0,0,1.751-5.491,19.709,19.709,0,0,0-1.164-4.386,11.828,11.828,0,0,1-.873-4.55ZM22.051,19a6.639,6.639,0,0,1-3.552.752H16.235v6.2h-3.4V10.055h4.833c2.246,0,4.125.145,5.43,1.735a4.64,4.64,0,0,1,.952,2.979A4.976,4.976,0,0,1,22.051,19Z" transform="translate(-2.881 -0.72)" fill="#fff"/></svg>