<svg xmlns="http://www.w3.org/2000/svg" width="32" height="20.244" viewBox="0 0 32 20.244"><path d="M32.888,25.751l.048-14.391-26.147.016V9.726H34.571V25.752H32.888Zm-.848,2.532-1.682,0,.048-14.391-26.147.017V12.257H32.041V28.283ZM29.563,29.97H2.571V14.787H29.563V29.97ZM27.875,16.421H4.258V28.283H27.874V16.421Zm-2.53,10.6a1.234,1.234,0,0,0,.085.421H16.066c2.329,0,4.218-2.265,4.218-5.061s-1.889-5.061-4.218-5.061H25.43a1.235,1.235,0,0,0-.085.422A1.264,1.264,0,0,0,26.61,19a1.235,1.235,0,0,0,.422-.085v6.918a1.235,1.235,0,0,0-1.686,1.181Zm-1.688-6.4c-.7,0-1.265.755-1.265,1.687S22.959,24,23.658,24s1.265-.755,1.265-1.687S24.357,20.622,23.658,20.622Zm-5.826-1.284a.393.393,0,0,1,.031.1.865.865,0,0,1,.018.153c0,.061.006.138.006.23s0,.189-.008.259a1.174,1.174,0,0,1-.026.174.218.218,0,0,1-.052.1.132.132,0,0,1-.093.032.445.445,0,0,1-.184-.073c-.085-.05-.189-.1-.311-.159a2.973,2.973,0,0,0-.427-.157,1.893,1.893,0,0,0-.532-.071,1.26,1.26,0,0,0-.395.055.813.813,0,0,0-.282.152.6.6,0,0,0-.168.233.76.76,0,0,0-.056.289.64.64,0,0,0,.124.393,1.179,1.179,0,0,0,.333.295,3.564,3.564,0,0,0,.472.243q.263.114.537.239a5.35,5.35,0,0,1,.538.288,2.136,2.136,0,0,1,.469.384,1.794,1.794,0,0,1,.333.527,1.847,1.847,0,0,1,.126.714,2.106,2.106,0,0,1-.2.942,1.948,1.948,0,0,1-.543.678,2.36,2.36,0,0,1-.8.408c-.039.012-.081.017-.12.026v.921H15.79V25.9l-.031,0a3.563,3.563,0,0,1-.656-.057,3.922,3.922,0,0,1-.535-.138,2.35,2.35,0,0,1-.387-.17,1.074,1.074,0,0,1-.224-.157.4.4,0,0,1-.1-.2,1.8,1.8,0,0,1-.029-.372c0-.109,0-.2.011-.274a.778.778,0,0,1,.035-.18.2.2,0,0,1,.063-.1.156.156,0,0,1,.092-.029.432.432,0,0,1,.209.088,3.7,3.7,0,0,0,.345.192,3.165,3.165,0,0,0,.5.192,2.376,2.376,0,0,0,.677.088,1.561,1.561,0,0,0,.453-.061,1.025,1.025,0,0,0,.34-.171.741.741,0,0,0,.213-.275.871.871,0,0,0,.074-.365.643.643,0,0,0-.126-.4,1.252,1.252,0,0,0-.329-.3,3.4,3.4,0,0,0-.461-.242c-.173-.076-.349-.156-.532-.24a4.84,4.84,0,0,1-.532-.287,2.128,2.128,0,0,1-.461-.385,1.825,1.825,0,0,1-.329-.529,2.154,2.154,0,0,1,.056-1.593,1.769,1.769,0,0,1,.49-.616,2.1,2.1,0,0,1,.727-.366,3.048,3.048,0,0,1,.444-.092V18h.829v.872c.033,0,.066,0,.1.008a3.306,3.306,0,0,1,.454.1,2.491,2.491,0,0,1,.373.141.883.883,0,0,1,.217.131.333.333,0,0,1,.069.086Zm-5.983,3.041c0,2.795,1.888,5.061,4.217,5.061H6.7a1.236,1.236,0,0,0-1.6-1.6V18.92A1.235,1.235,0,0,0,5.523,19,1.236,1.236,0,0,0,6.7,17.318h9.363c-2.329,0-4.217,2.265-4.217,5.06ZM8.475,20.622c-.7,0-1.265.755-1.265,1.687S7.777,24,8.475,24s1.265-.755,1.265-1.687S9.174,20.622,8.475,20.622Z" transform="translate(-2.571 -9.726)" fill="#fff"/></svg>