<svg xmlns="http://www.w3.org/2000/svg" width="40.5" height="31.5" viewBox="0 0 40.5 31.5"><path d="M20.25,2.25a20.249,20.249,0,0,0-17.5,30.431A2.225,2.225,0,0,0,4.676,33.75H35.824a2.225,2.225,0,0,0,1.929-1.069A20.249,20.249,0,0,0,20.25,2.25Zm0,4.5a2.22,2.22,0,0,1,2.132,1.663,3.79,3.79,0,0,0-.243.469l-.648,1.946a2.192,2.192,0,0,1-1.24.423,2.25,2.25,0,0,1,0-4.5ZM6.75,27A2.25,2.25,0,1,1,9,24.75,2.25,2.25,0,0,1,6.75,27Zm3.375-11.25a2.25,2.25,0,1,1,2.25-2.25A2.25,2.25,0,0,1,10.125,15.75Zm17.351-5.091L23.164,23.6a4.416,4.416,0,0,1,.962,5.654H16.374a4.454,4.454,0,0,1,3.587-6.721L24.275,9.591a1.687,1.687,0,0,1,3.2,1.068Zm1.031,4.022L29.6,11.408a2.218,2.218,0,0,1,.777-.157,2.25,2.25,0,1,1,0,4.5,2.216,2.216,0,0,1-1.868-1.07ZM33.75,27A2.25,2.25,0,1,1,36,24.75,2.25,2.25,0,0,1,33.75,27Z" transform="translate(0 -2.25)" fill="#fff"/></svg>